<svg
        width="42"
        height="42"
        viewBox="0 0 42 42"
        fill="none"
        xmlns="http://www.w3.org/2000/svg"
      >
        <circle
          cx="21"
          cy="21"
          r="20"
          fill="#005486"
          stroke="#00acc8"
          stroke-width="2"
        />
        <path
          d="M23.8502 27.712C23.9142 27.712 23.9462 27.76 23.9462 27.856C23.9462 27.952 23.9142 28 23.8502 28C23.5462 28 23.0742 27.984 22.4342 27.952C21.7942 27.92 21.3302 27.904 21.0422 27.904C20.6902 27.904 20.2422 27.92 19.6982 27.952C19.1862 27.984 18.7942 28 18.5222 28C18.4582 28 18.4262 27.952 18.4262 27.856C18.4262 27.76 18.4582 27.712 18.5222 27.712C19.1142 27.712 19.5462 27.656 19.8182 27.544C20.0902 27.432 20.2262 27.24 20.2262 26.968C20.2262 26.744 20.1222 26.4 19.9142 25.936L17.7782 21.4H12.0662L10.5542 24.952C10.3302 25.496 10.2182 25.936 10.2182 26.272C10.2182 26.768 10.4102 27.136 10.7942 27.376C11.1942 27.6 11.7862 27.712 12.5702 27.712C12.6502 27.712 12.6902 27.76 12.6902 27.856C12.6902 27.952 12.6502 28 12.5702 28C12.2822 28 11.8662 27.984 11.3222 27.952C10.7142 27.92 10.1862 27.904 9.73822 27.904C9.32222 27.904 8.84222 27.92 8.29822 27.952C7.81822 27.984 7.41822 28 7.09822 28C7.01822 28 6.97822 27.952 6.97822 27.856C6.97822 27.76 7.01822 27.712 7.09822 27.712C7.54622 27.712 7.92222 27.632 8.22622 27.472C8.54622 27.296 8.84222 27 9.11422 26.584C9.40222 26.152 9.71422 25.536 10.0502 24.736L15.1142 12.784C15.1462 12.736 15.2022 12.712 15.2822 12.712C15.3622 12.712 15.4102 12.736 15.4262 12.784L21.0902 24.712C21.6342 25.896 22.0982 26.696 22.4822 27.112C22.8662 27.512 23.3222 27.712 23.8502 27.712ZM12.2582 20.92H17.5622L14.7542 14.992L12.2582 20.92Z"
          fill="#00acc8"
        />
        <path
          d="M34.0638 13C34.1118 13 34.1358 13.048 34.1358 13.144C34.1358 13.24 34.1118 13.288 34.0638 13.288C33.5198 13.288 33.0478 13.432 32.6478 13.72C32.2478 14.008 31.9118 14.496 31.6398 15.184L26.5278 27.976C26.5118 28.04 26.4238 28.072 26.2638 28.072C26.1358 28.072 26.0478 28.04 25.9998 27.976L20.0238 14.992C19.7518 14.368 19.4638 13.928 19.1598 13.672C18.8558 13.416 18.4638 13.288 17.9838 13.288C17.9358 13.288 17.9118 13.24 17.9118 13.144C17.9118 13.048 17.9358 13 17.9838 13L18.8958 13.024C19.3438 13.056 19.7038 13.072 19.9758 13.072C20.6158 13.072 21.3038 13.056 22.0398 13.024L23.0238 13C23.0718 13 23.0958 13.048 23.0958 13.144C23.0958 13.24 23.0718 13.288 23.0238 13.288C22.0318 13.288 21.5358 13.568 21.5358 14.128C21.5358 14.32 21.6078 14.576 21.7518 14.896L26.7678 25.888L31.0878 15.064C31.2158 14.728 31.2798 14.464 31.2798 14.272C31.2798 13.936 31.1278 13.688 30.8238 13.528C30.5198 13.368 30.0478 13.288 29.4078 13.288C29.3598 13.288 29.3358 13.24 29.3358 13.144C29.3358 13.048 29.3598 13 29.4078 13L30.4398 13.024C30.9838 13.056 31.4798 13.072 31.9278 13.072C32.2638 13.072 32.6398 13.056 33.0558 13.024L34.0638 13Z"
          fill="#00acc8"
        />
      </svg>